# xmcd
#
# Track frame offsets: 
#        150
#        24851
#        47299
#        67654
#        88888
#        102417
#        132966
#        151298
#        170238
#        186869
#        206264
#        227258
#        245071
#        261038
#        283526
#        302868
#        319851
#
# Disc length: 4516 seconds
#
# Revision: 0
# Processed by: cddbd v1.4PL0 Copyright (c) Steve Scherf et al.
# Submitted via: ExactAudioCopy v0.95a3
#
DISCID=df11a211
DTITLE=Various Artist - Euramerican LOVE SONGS_≈∑√¿…À∏–«È∏ËII
DYEAR=2003
DGENRE=Other
TTITLE0=Phil Collins-Another day in paradise
TTITLE1=Seal-Kiss from a rose
TTITLE2=Tina Arena-Ghains
TTITLE3=When you believe
TTITLE4=Babby Vinton-Sealed with a kiss
TTITLE5=Di It For You-Everything I do
TTITLE6=Trisha Yesrwood-How do I live
TTITLE7=Everything But-Missing
TTITLE8=Christina Agulera-Refiection
TTITLE9=Celina Dion-Immcrtality
TTITLE10=Backstreet Boys-I'll never break you heart
TTITLE11=Chicago-Hard to say I am sorry
TTITLE12=Phil Collins-Against all odds
TTITLE13=Eagles-I cant tell you why
TTITLE14=Vanessa Willama-Candoe in wild
TTITLE15=Richard Mars-Now and forever
TTITLE16=Elton John-Can you feel the love tonight
EXTD=
EXTT0=
EXTT1=
EXTT2=
EXTT3=
EXTT4=
EXTT5=
EXTT6=
EXTT7=
EXTT8=
EXTT9=
EXTT10=
EXTT11=
EXTT12=
EXTT13=
EXTT14=
EXTT15=
EXTT16=
PLAYORDER=
